<?xml version="1.0" encoding="utf-8"?>
<!-- Generator: Adobe Illustrator 22.1.0, SVG Export Plug-In . SVG Version: 6.00 Build 0)  -->
<svg version="1.1" id="Layer_1" xmlns="http://www.w3.org/2000/svg" xmlns:xlink="http://www.w3.org/1999/xlink" x="0px" y="0px"
	 viewBox="0 0 200 100" style="enable-background:new 0 0 200 100;" xml:space="preserve">
<style type="text/css">
	.st0{fill:#C9BD91;}
</style>
<g>
	<path class="st0" d="M87.6,36c0,4.4-5.4,10.7-10.4,13.3c-1.9-0.9-3.5-2-3.5-2.9c0,1.1-2.3,2.5-4.7,3.4c-3.4-0.2-6.9-0.3-10.3-0.4
		c-5.8-0.1-11.9,0.1-17.6,0.2C29.4,49.8,19,50,6,50.3v0.2c13,0.3,23.4,0.6,35,0.8c5.8,0.1,11.7,0.4,17.5,0.2
		c3.4-0.1,6.9-0.2,10.4-0.4c2.4,0.8,4.8,2.3,4.8,3.4c0-0.9,1.6-2,3.5-2.9c5,2.6,10.4,8.9,10.4,13.3c0-5.6,8.8-14.4,14.4-14.4
		C96.4,50.4,87.6,41.6,87.6,36z"/>
	<path class="st0" d="M159.4,49.6c-5.8-0.1-11.5-0.4-17.3-0.2c-3.4,0.1-6.9,0.2-10.3,0.4c-2.4-0.8-4.7-2.3-4.7-3.4
		c0,0.9-1.6,2-3.5,2.9c-5-2.6-10.4-8.9-10.4-13.3c0,5.6-8.8,14.4-14.4,14.4c5.6,0,14.4,8.8,14.4,14.4c0-4.4,5.4-10.7,10.4-13.3
		c1.9,0.9,3.5,2,3.5,2.9c0-1.1,2.3-2.5,4.7-3.4c3.4,0.2,6.9,0.3,10.3,0.4c5.8,0.1,11.5-0.1,17.2-0.2c11.6-0.2,23.8-0.4,34.6-0.8
		v-0.2C183.2,50,171,49.8,159.4,49.6z"/>
</g>
</svg>
